<svg width="826" height="241" viewBox="0 0 826 241" fill="none" xmlns="http://www.w3.org/2000/svg">
<path d="M249.376 128.889V2.03694H266.439V128.889H249.376ZM327.898 128.889L285.764 72.7216H305.787L348.617 128.889H327.898ZM259.997 83.2639V68.2282H294.122C299.461 68.2282 304.046 67.1337 307.876 64.9446C311.706 62.7555 314.666 59.7599 316.755 55.9578C318.845 52.0405 319.889 47.6047 319.889 42.6504C319.889 37.6961 318.845 33.3179 316.755 29.5158C314.666 25.5985 311.706 22.5453 307.876 20.3562C304.046 18.0519 299.461 16.8997 294.122 16.8997H259.997V2.03694H290.988C300.273 2.03694 308.398 3.41952 315.362 6.18469C322.327 8.94986 327.724 13.2128 331.554 18.9736C335.385 24.7344 337.3 32.1658 337.3 41.2678V44.033C337.3 53.135 335.327 60.5664 331.38 66.3272C327.55 72.088 322.153 76.3509 315.188 79.1161C308.34 81.8813 300.273 83.2639 290.988 83.2639H259.997Z" fill="white"/>
<path d="M425.083 128.889V101.237H422.298V69.2652C422.298 62.9283 420.615 58.1469 417.249 54.9208C413.999 51.6948 409.182 50.0818 402.798 50.0818C399.2 50.0818 395.485 50.1394 391.655 50.2546C387.825 50.3698 384.168 50.485 380.686 50.6003C377.204 50.7155 374.186 50.8883 371.633 51.1187V36.6016C374.186 36.3712 376.856 36.1983 379.642 36.0831C382.543 35.8527 385.503 35.7375 388.521 35.7375C391.539 35.6222 394.441 35.5646 397.226 35.5646C406.744 35.5646 414.521 36.7168 420.557 39.0211C426.592 41.2102 431.061 44.8395 433.963 49.909C436.864 54.9785 438.315 61.8338 438.315 70.4749V128.889H425.083ZM394.615 131.309C387.65 131.309 381.615 130.157 376.508 127.852C371.517 125.433 367.628 121.976 364.843 117.483C362.173 112.989 360.838 107.574 360.838 101.237C360.838 94.6702 362.289 89.1975 365.191 84.8193C368.209 80.4411 372.561 77.1574 378.249 74.9683C383.936 72.664 390.784 71.5119 398.793 71.5119H424.039V83.9551H398.097C391.365 83.9551 386.2 85.5682 382.601 88.7942C379.003 92.0202 377.204 96.168 377.204 101.237C377.204 106.307 379.003 110.397 382.601 113.508C386.2 116.619 391.365 118.174 398.097 118.174C402.043 118.174 405.816 117.483 409.414 116.1C413.012 114.602 415.972 112.183 418.293 108.842C420.731 105.385 422.065 100.661 422.298 94.6702L426.824 101.237C426.244 107.805 424.619 113.335 421.949 117.829C419.396 122.207 415.798 125.548 411.155 127.852C406.628 130.157 401.115 131.309 394.615 131.309Z" fill="white"/>
<path d="M473.519 128.889V36.6016H490.233V128.889H473.519ZM459.242 49.7361V36.6016H490.233V49.7361H459.242ZM478.22 21.7388C474.505 21.7388 471.72 20.7595 469.863 18.8008C468.122 16.8421 467.251 14.365 467.251 11.3694C467.251 8.37379 468.122 5.89665 469.863 3.93799C471.72 1.97933 474.505 1 478.22 1C481.934 1 484.662 1.97933 486.403 3.93799C488.26 5.89665 489.188 8.37379 489.188 11.3694C489.188 14.365 488.26 16.8421 486.403 18.8008C484.662 20.7595 481.934 21.7388 478.22 21.7388Z" fill="white"/>
<path d="M565.38 132C557.255 132 550.117 130.617 543.965 127.852C537.813 125.087 532.59 121.458 528.296 116.964C524.117 112.356 520.925 107.229 518.72 101.583C516.63 95.9376 515.586 90.1768 515.586 84.3008V81.19C515.586 75.314 516.688 69.5532 518.894 63.9077C521.099 58.1469 524.349 53.0198 528.644 48.5264C532.938 43.9178 538.162 40.2885 544.313 37.6385C550.465 34.8733 557.487 33.4908 565.38 33.4908C573.273 33.4908 580.295 34.8733 586.447 37.6385C592.599 40.2885 597.822 43.9178 602.117 48.5264C606.411 53.0198 609.661 58.1469 611.866 63.9077C614.072 69.5532 615.174 75.314 615.174 81.19V84.3008C615.174 90.1768 614.072 95.9376 611.866 101.583C609.777 107.229 606.585 112.356 602.291 116.964C598.112 121.458 592.947 125.087 586.795 127.852C580.643 130.617 573.505 132 565.38 132ZM565.38 117.137C572.344 117.137 578.264 115.639 583.139 112.644C588.13 109.533 591.902 105.385 594.456 100.201C597.125 95.0158 598.46 89.1974 598.46 82.7454C598.46 76.1781 597.125 70.3021 594.456 65.1174C591.786 59.9327 587.956 55.8426 582.965 52.847C578.09 49.8514 572.228 48.3536 565.38 48.3536C558.648 48.3536 552.786 49.8514 547.795 52.847C542.804 55.8426 538.974 59.9327 536.304 65.1174C533.635 70.3021 532.3 76.1781 532.3 82.7454C532.3 89.1974 533.577 95.0158 536.13 100.201C538.8 105.385 542.572 109.533 547.447 112.644C552.438 115.639 558.416 117.137 565.38 117.137Z" fill="white"/>
<path d="M635.681 87.9301V73.7586H700.448V87.9301H635.681Z" fill="white"/>
<path d="M710.118 128.889L757.475 61.4881V64.5989L714.297 2.72823H733.622L766.877 51.1187H769.662L803.439 2.72823H821.894L777.497 65.2902L777.323 62.1794L825.376 128.889H806.051L768.095 75.8325H765.31L728.573 128.889H710.118Z" fill="#D4A139"/>
<path d="M273.243 222.962C269.65 222.962 266.341 222.297 263.315 220.968C260.29 219.639 257.642 217.772 255.373 215.367C253.167 212.962 251.433 210.177 250.173 207.013C248.975 203.848 248.376 200.43 248.376 196.759V195.051C248.376 191.443 248.975 188.057 250.173 184.892C251.37 181.728 253.041 178.943 255.184 176.538C257.39 174.133 259.974 172.266 262.937 170.937C265.963 169.544 269.303 168.848 272.959 168.848C276.804 168.848 280.303 169.671 283.454 171.316C286.606 172.899 289.19 175.399 291.207 178.816C293.224 182.234 294.359 186.665 294.611 192.108L290.829 186.032V151.949H299.906V221.253H292.72V198.753H295.368C295.115 204.513 293.918 209.196 291.775 212.804C289.632 216.348 286.921 218.943 283.643 220.589C280.429 222.171 276.962 222.962 273.243 222.962ZM274.472 214.987C277.561 214.987 280.366 214.291 282.887 212.899C285.408 211.506 287.425 209.513 288.938 206.918C290.451 204.259 291.207 201.158 291.207 197.614V193.247C291.207 189.766 290.419 186.823 288.844 184.418C287.331 181.949 285.282 180.082 282.698 178.816C280.177 177.487 277.403 176.823 274.377 176.823C271.037 176.823 268.074 177.614 265.49 179.196C262.968 180.778 260.983 182.994 259.533 185.842C258.146 188.69 257.453 192.044 257.453 195.905C257.453 199.766 258.178 203.152 259.628 206.063C261.077 208.911 263.095 211.127 265.679 212.709C268.263 214.228 271.194 214.987 274.472 214.987Z" fill="white"/>
<path d="M340.605 222.962C336.193 222.962 332.316 222.203 328.976 220.684C325.635 219.165 322.798 217.171 320.466 214.703C318.197 212.171 316.463 209.354 315.266 206.253C314.131 203.152 313.564 199.987 313.564 196.759V195.051C313.564 191.823 314.163 188.658 315.36 185.557C316.558 182.392 318.323 179.576 320.655 177.108C322.987 174.576 325.824 172.582 329.165 171.127C332.505 169.608 336.319 168.848 340.605 168.848C344.891 168.848 348.705 169.608 352.046 171.127C355.386 172.582 358.223 174.576 360.555 177.108C362.887 179.576 364.652 182.392 365.85 185.557C367.048 188.658 367.646 191.823 367.646 195.051V196.759C367.646 199.987 367.048 203.152 365.85 206.253C364.715 209.354 362.982 212.171 360.65 214.703C358.381 217.171 355.576 219.165 352.235 220.684C348.894 222.203 345.018 222.962 340.605 222.962ZM340.605 214.797C344.387 214.797 347.602 213.975 350.249 212.329C352.96 210.62 355.008 208.342 356.395 205.494C357.845 202.646 358.57 199.449 358.57 195.905C358.57 192.297 357.845 189.07 356.395 186.222C354.945 183.373 352.865 181.127 350.155 179.481C347.507 177.835 344.324 177.013 340.605 177.013C336.949 177.013 333.766 177.835 331.056 179.481C328.345 181.127 326.265 183.373 324.815 186.222C323.366 189.07 322.641 192.297 322.641 195.905C322.641 199.449 323.334 202.646 324.721 205.494C326.171 208.342 328.219 210.62 330.867 212.329C333.577 213.975 336.823 214.797 340.605 214.797Z" fill="white"/>
<path d="M411.453 221.633V213.089H428.661C432.822 213.089 436.509 212.424 439.724 211.095C443.001 209.703 445.775 207.804 448.044 205.399C450.376 202.994 452.141 200.177 453.339 196.949C454.537 193.722 455.135 190.241 455.135 186.506C455.135 182.582 454.537 179.038 453.339 175.873C452.141 172.646 450.376 169.861 448.044 167.519C445.775 165.114 443.001 163.278 439.724 162.013C436.509 160.747 432.822 160.114 428.661 160.114H411.453V151.57H427.716C433.956 151.57 439.377 152.551 443.978 154.513C448.58 156.411 452.393 159.006 455.419 162.297C458.508 165.525 460.808 169.165 462.321 173.215C463.834 177.203 464.59 181.285 464.59 185.462V187.551C464.59 191.601 463.834 195.652 462.321 199.703C460.808 203.753 458.508 207.424 455.419 210.715C452.393 214.006 448.58 216.665 443.978 218.69C439.377 220.652 433.956 221.633 427.716 221.633H411.453ZM404.078 221.633V151.57H413.344V221.633H404.078Z" fill="white"/>
<path d="M499.008 222.962C494.596 222.962 490.782 222.203 487.567 220.684C484.353 219.165 481.737 217.171 479.72 214.703C477.703 212.171 476.19 209.354 475.181 206.253C474.236 203.152 473.763 199.987 473.763 196.759V195.051C473.763 191.759 474.236 188.563 475.181 185.462C476.19 182.361 477.703 179.576 479.72 177.108C481.737 174.576 484.29 172.582 487.378 171.127C490.53 169.608 494.217 168.848 498.441 168.848C503.925 168.848 508.431 170.051 511.961 172.456C515.554 174.797 518.202 177.835 519.903 181.57C521.668 185.304 522.551 189.291 522.551 193.532V197.614H477.734V190.778H515.932L513.852 194.481C513.852 190.873 513.285 187.772 512.15 185.177C511.016 182.519 509.314 180.462 507.045 179.006C504.775 177.551 501.907 176.823 498.441 176.823C494.848 176.823 491.854 177.646 489.458 179.291C487.126 180.937 485.361 183.184 484.164 186.032C483.029 188.88 482.462 192.171 482.462 195.905C482.462 199.513 483.029 202.772 484.164 205.684C485.361 208.532 487.189 210.81 489.648 212.519C492.106 214.165 495.226 214.987 499.008 214.987C502.979 214.987 506.194 214.101 508.652 212.329C511.173 210.557 512.686 208.5 513.19 206.158H521.7C521.007 209.639 519.62 212.646 517.54 215.177C515.46 217.709 512.844 219.639 509.692 220.968C506.54 222.297 502.979 222.962 499.008 222.962Z" fill="white"/>
<path d="M551.985 222.772C545.366 222.772 540.229 221.348 536.573 218.5C532.98 215.652 531.121 211.759 530.995 206.823H539.504C539.63 208.785 540.607 210.652 542.435 212.424C544.326 214.133 547.509 214.987 551.985 214.987C556.019 214.987 559.107 214.196 561.251 212.614C563.394 210.968 564.465 208.975 564.465 206.633C564.465 204.544 563.677 202.93 562.101 201.791C560.526 200.589 557.973 199.797 554.443 199.418L548.959 198.848C544.169 198.342 540.26 196.918 537.235 194.576C534.209 192.171 532.696 188.816 532.696 184.513C532.696 181.285 533.516 178.532 535.155 176.253C536.794 173.911 539.063 172.139 541.962 170.937C544.862 169.671 548.203 169.038 551.985 169.038C557.658 169.038 562.259 170.304 565.789 172.835C569.319 175.367 571.147 179.133 571.273 184.133H562.763C562.7 182.108 561.755 180.399 559.927 179.006C558.162 177.551 555.515 176.823 551.985 176.823C548.455 176.823 545.776 177.551 543.948 179.006C542.12 180.462 541.206 182.297 541.206 184.513C541.206 186.411 541.836 187.93 543.097 189.07C544.421 190.209 546.564 190.937 549.526 191.253L555.01 191.823C560.431 192.392 564.78 193.911 568.058 196.38C571.336 198.785 572.975 202.203 572.975 206.633C572.975 209.797 572.061 212.614 570.233 215.082C568.468 217.487 566.01 219.386 562.858 220.778C559.706 222.108 556.082 222.772 551.985 222.772Z" fill="white"/>
<path d="M588.588 221.253V170.557H597.665V221.253H588.588ZM580.835 177.772V170.557H597.665V177.772H580.835ZM591.141 162.392C589.124 162.392 587.611 161.854 586.602 160.778C585.657 159.703 585.184 158.342 585.184 156.696C585.184 155.051 585.657 153.69 586.602 152.614C587.611 151.538 589.124 151 591.141 151C593.158 151 594.639 151.538 595.585 152.614C596.593 153.69 597.098 155.051 597.098 156.696C597.098 158.342 596.593 159.703 595.585 160.778C594.639 161.854 593.158 162.392 591.141 162.392Z" fill="white"/>
<path d="M634.314 241C631.982 241 629.618 240.905 627.223 240.715C624.89 240.525 622.653 240.272 620.51 239.956V232.266C622.779 232.582 625.143 232.835 627.601 233.025C630.122 233.278 632.486 233.405 634.692 233.405C639.294 233.405 642.95 232.772 645.66 231.506C648.433 230.304 650.419 228.373 651.617 225.715C652.877 223.12 653.508 219.766 653.508 215.652V205.968L656.533 198.753C656.344 203.88 655.273 208.152 653.318 211.57C651.364 214.924 648.812 217.456 645.66 219.165C642.571 220.81 639.136 221.633 635.354 221.633C631.824 221.633 628.578 220.968 625.615 219.639C622.716 218.247 620.195 216.348 618.051 213.943C615.971 211.538 614.332 208.785 613.135 205.684C612 202.519 611.433 199.196 611.433 195.715V194.006C611.433 190.462 612.032 187.171 613.229 184.133C614.427 181.032 616.097 178.342 618.24 176.063C620.384 173.785 622.936 172.013 625.899 170.747C628.925 169.481 632.234 168.848 635.827 168.848C640.05 168.848 643.769 169.766 646.984 171.601C650.198 173.373 652.72 176 654.548 179.481C656.439 182.899 657.479 187.108 657.668 192.108L655.02 192.203V170.557H662.206V215.272C662.206 221.348 661.261 226.253 659.37 229.987C657.542 233.785 654.579 236.57 650.482 238.342C646.448 240.114 641.058 241 634.314 241ZM637.056 213.278C640.081 213.278 642.823 212.614 645.282 211.285C647.803 209.956 649.789 208.057 651.238 205.589C652.751 203.057 653.508 200.051 653.508 196.57V192.203C653.508 188.785 652.72 185.905 651.144 183.563C649.631 181.222 647.645 179.449 645.187 178.247C642.729 177.044 640.05 176.443 637.15 176.443C633.873 176.443 630.973 177.203 628.452 178.722C625.931 180.241 623.976 182.392 622.59 185.177C621.203 187.899 620.51 191.127 620.51 194.861C620.51 198.595 621.203 201.854 622.59 204.639C624.04 207.424 625.994 209.576 628.452 211.095C630.973 212.551 633.841 213.278 637.056 213.278Z" fill="white"/>
<path d="M679.018 221.253V170.557H686.203V192.297H685.069C685.069 187.297 685.731 183.089 687.054 179.671C688.441 176.19 690.521 173.563 693.295 171.791C696.068 169.956 699.566 169.038 703.79 169.038H704.168C710.534 169.038 715.23 171.032 718.256 175.019C721.344 179.006 722.889 184.766 722.889 192.297V221.253H713.812V190.399C713.812 186.475 712.709 183.342 710.503 181C708.297 178.595 705.271 177.392 701.426 177.392C697.455 177.392 694.24 178.627 691.782 181.095C689.323 183.563 688.094 186.854 688.094 190.968V221.253H679.018Z" fill="white"/>
<path d="M760.959 222.962C756.547 222.962 752.733 222.203 749.518 220.684C746.304 219.165 743.688 217.171 741.671 214.703C739.654 212.171 738.141 209.354 737.132 206.253C736.187 203.152 735.714 199.987 735.714 196.759V195.051C735.714 191.759 736.187 188.563 737.132 185.462C738.141 182.361 739.654 179.576 741.671 177.108C743.688 174.576 746.241 172.582 749.329 171.127C752.481 169.608 756.169 168.848 760.392 168.848C765.876 168.848 770.382 170.051 773.912 172.456C777.505 174.797 780.153 177.835 781.855 181.57C783.619 185.304 784.502 189.291 784.502 193.532V197.614H739.685V190.778H777.883L775.803 194.481C775.803 190.873 775.236 187.772 774.101 185.177C772.967 182.519 771.265 180.462 768.996 179.006C766.727 177.551 763.859 176.823 760.392 176.823C756.799 176.823 753.805 177.646 751.409 179.291C749.077 180.937 747.312 183.184 746.115 186.032C744.98 188.88 744.413 192.171 744.413 195.905C744.413 199.513 744.98 202.772 746.115 205.684C747.312 208.532 749.14 210.81 751.599 212.519C754.057 214.165 757.177 214.987 760.959 214.987C764.93 214.987 768.145 214.101 770.603 212.329C773.124 210.557 774.637 208.5 775.141 206.158H783.651C782.958 209.639 781.571 212.646 779.491 215.177C777.411 217.709 774.795 219.639 771.643 220.968C768.491 222.297 764.93 222.962 760.959 222.962Z" fill="white"/>
<path d="M797.39 221.253V170.557H804.575V191.443H804.197C804.197 184.038 805.804 178.627 809.019 175.209C812.297 171.728 817.182 169.987 823.674 169.987H825.376V178.152H822.162C817.119 178.152 813.242 179.513 810.532 182.234C807.822 184.892 806.466 188.753 806.466 193.816V221.253H797.39Z" fill="white"/>
<path d="M82.0262 84.9641H46.1525L142.91 226.571H180.672L82.0262 84.9641Z" fill="#D4A139"/>
<path d="M144.798 84.9641H180.671L83.9143 226.571H46.1525L144.798 84.9641Z" fill="#D4A139"/>
<path d="M0 145.383V0H32.2854V145.383H0ZM113.5 183.5L45.0815 83.3581H80.5167L150.5 183L113.5 183.5ZM23.6235 99.1606V73.6791H59.0587C63.7834 73.6791 67.8519 72.7573 71.2642 70.9137C74.8077 68.9384 77.4982 66.2388 79.3356 62.8149C81.3042 59.2593 82.2885 55.177 82.2885 50.568C82.2885 45.9589 81.3042 41.9424 79.3356 38.5186C77.4982 34.963 74.8077 32.2634 71.2642 30.4198C67.8519 28.4445 63.7834 27.4568 59.0587 27.4568H23.6235V0H56.4995C68.4425 0 78.8106 1.84363 87.6038 5.53088C96.397 9.08644 103.156 14.4198 107.881 21.5309C112.605 28.642 114.968 37.5968 114.968 48.3951V51.5556C114.968 62.2223 112.54 71.1112 107.684 78.2223C102.959 85.2018 96.2001 90.4693 87.4069 94.0248C78.745 97.4487 68.4425 99.1606 56.4995 99.1606H23.6235Z" fill="white"/>
<path d="M45.0815 83.3581L113.5 183.5L150.5 183L80.5167 83.3581H45.0815Z" fill="white"/>
</svg>
